<?xml version="1.0" encoding="UTF-8" standalone="no"?>
<!-- Created with Inkscape (http://www.inkscape.org/) -->

<svg
   xmlns:dc="http://purl.org/dc/elements/1.1/"
   xmlns:cc="http://creativecommons.org/ns#"
   xmlns:rdf="http://www.w3.org/1999/02/22-rdf-syntax-ns#"
   xmlns:svg="http://www.w3.org/2000/svg"
   xmlns="http://www.w3.org/2000/svg"
   xmlns:xlink="http://www.w3.org/1999/xlink"
   xmlns:sodipodi="http://sodipodi.sourceforge.net/DTD/sodipodi-0.dtd"
   xmlns:inkscape="http://www.inkscape.org/namespaces/inkscape"
   width="1600"
   height="900"
   id="svg2"
   version="1.1"
   inkscape:version="0.48.5 r10040"
   sodipodi:docname="021.svg">
  <defs
     id="defs4" />
  <sodipodi:namedview
     id="base"
     pagecolor="#ffffff"
     bordercolor="#666666"
     borderopacity="1.0"
     inkscape:pageopacity="0.0"
     inkscape:pageshadow="2"
     inkscape:zoom="0.35"
     inkscape:cx="710.04484"
     inkscape:cy="520"
     inkscape:document-units="px"
     inkscape:current-layer="layer1"
     showgrid="false"
     width="1600px"
     inkscape:window-width="1366"
     inkscape:window-height="721"
     inkscape:window-x="0"
     inkscape:window-y="1"
     inkscape:window-maximized="1" />
  <metadata
     id="metadata7">
    <rdf:RDF>
      <cc:Work
         rdf:about="">
        <dc:format>image/svg+xml</dc:format>
        <dc:type
           rdf:resource="http://purl.org/dc/dcmitype/StillImage" />
        <dc:title></dc:title>
      </cc:Work>
    </rdf:RDF>
  </metadata>
  <g
     inkscape:label="Layer 1"
     inkscape:groupmode="layer"
     id="layer1"
     transform="translate(0,-152.36218)">
    <g
       id="g3450"
       transform="matrix(0.32878736,0,0,0.32878736,271.62339,263.94477)"
       inkscape:tile-cx="345.71428"
       inkscape:tile-cy="251.85902"
       inkscape:tile-w="126.14562"
       inkscape:tile-h="134.12118"
       inkscape:tile-x0="283.94774"
       inkscape:tile-y0="186.10471">
      <path
         d="m -80.328509,634.5833 -19.5,-380.31 326.879999,1.021 c -0.02,20.061 5.69,359.95 5.89,376.59 -103.06,-20.5 -303.919999,2.56 -313.269999,2.7 z"
         id="path623"
         inkscape:connector-curvature="0"
         style="fill:#040565;fill-opacity:0.39770005;fill-rule:evenodd" />
      <path
         d="m -127.46651,609.0433 c -5.846,-126.11 -7.764,-324.9 -17.538,-378.34 106.340001,15.401 257.76,-13.086 324.92,-0.943 -20.03,58.673 3.73,359.95 3.93,376.58 -103.069999,-20.49 -310.88,12.04 -311.31,2.7 z"
         id="path583"
         inkscape:connector-curvature="0"
         style="fill:#ffffeb;fill-rule:evenodd;stroke:#99bf99;stroke-width:15.8920002" />
      <path
         d="m -105.86051,581.5533 c -15.266,-68.12 -14.048,-323.15 -13.579,-332.15 100.660001,18.276 242.64,-3.342 260.57,-2.983 l -0.51,24.588 c -0.01,20.06 -73.649999,143.7 -73.449999,160.34 -103.07,-20.5 -163.69,150.06 -173.030001,150.2 z"
         id="path622"
         inkscape:connector-curvature="0"
         style="fill:#b2d385;fill-opacity:0.4327;fill-rule:evenodd" />
      <path
         d="m -102.77451,342.6433 v 36.57 H 9.7654911 v -36.57 H -102.77451 z"
         id="path627"
         inkscape:connector-curvature="0"
         style="fill:#3a8b39;fill-rule:evenodd" />
      <path
         d="m -101.36751,398.9133 v 30.95 H 9.7624911 v -30.95 H -101.36751 z"
         id="path633"
         inkscape:connector-curvature="0"
         style="fill:#ffff00;fill-rule:evenodd" />
      <path
         d="m -101.36751,438.3033 v 36.57 h 91.4390011 v -36.57 H -101.36751 z"
         id="path626"
         inkscape:connector-curvature="0"
         style="fill:#e1cf80;fill-rule:evenodd" />
      <path
         d="m 33.681491,342.6433 v 35.17 H 140.59149 v -35.17 H 33.681491 z"
         id="path628"
         inkscape:connector-curvature="0"
         style="fill:#cbcbe5;fill-rule:evenodd" />
      <path
         d="m 33.681491,397.5033 v 66.12 H 136.37149 v -66.12 H 33.681491 z"
         id="path625"
         inkscape:connector-curvature="0"
         style="fill:#d8d2e1;fill-rule:evenodd" />
      <path
         d="m -102.77451,290.5903 v 32.353 h 241.97 v -32.353 h -241.97 z"
         id="path632"
         inkscape:connector-curvature="0"
         style="fill:#eb7e58;fill-rule:evenodd" />
      <path
         d="m 134.84149,543.2833 v -47.31 h -239.53 l -0.004,47.31 h 239.53 z"
         id="path636"
         inkscape:connector-curvature="0"
         style="fill:#80b26b;fill-rule:evenodd" />
      <path
         d="m 237.37149,537.2433 c 0,30.69 -56.05,55.57 -125.2,55.57 -69.149999,0 -125.199999,-24.88 -125.199999,-55.57 -4.22,-84.15 -0.22,-64.01 125.199999,-55.57 131.04,-16.88 129.42,-18.73 125.2,55.57 z"
         id="path630"
         inkscape:connector-curvature="0"
         style="fill:#f14300;fill-rule:evenodd" />
      <path
         d="m 237.37149,483.7833 c 0,30.69 -56.05,55.57 -125.2,55.57 -69.149999,0 -125.199999,-24.88 -125.199999,-55.57 0,-30.69 56.05,-55.56 125.199999,-55.56 69.15,0 125.2,24.87 125.2,55.56 z"
         id="path631"
         inkscape:connector-curvature="0"
         style="fill:#ffbd4d;fill-rule:evenodd" />
      <path
         d="m 110.76149,476.0533 75.97,53.45 v 53.46 c -12.66,1.41 -19.71,9.8 -73.15,9.85 -43.689999,0.03 -56.269999,-5.63 -64.709999,-9.85 v -52.05 l 61.889999,-54.86 z"
         id="path635"
         inkscape:connector-curvature="0"
         style="fill:#ffff56;fill-rule:evenodd;stroke:#000000" />
      <path
         d="m 47.471491,530.2433 c 34.63,13.28 78.569999,14.82 138.959999,-0.36 -0.34,12.72 0.94,35.49 0.9,51.55 -16,7.25 -42.06,11.35 -68.78,11.38 -43.679999,0.03 -61.239999,-5.63 -69.679999,-9.85 l -1.4,-52.72 z"
         id="path637"
         inkscape:connector-curvature="0"
         style="fill:#b2ff56;fill-rule:evenodd;stroke:#000000" />
    </g>
    <use
       x="0"
       y="0"
       inkscape:tiled-clone-of="#g3450"
       xlink:href="#g3450"
       id="use3485"
       transform="translate(-197.14286,-34.285717)"
       width="1600"
       height="900" />
    <use
       x="0"
       y="0"
       inkscape:tiled-clone-of="#g3450"
       xlink:href="#g3450"
       transform="translate(82.857142,-160.16453)"
       id="use3487"
       width="1600"
       height="900" />
    <use
       x="0"
       y="0"
       inkscape:tiled-clone-of="#g3450"
       xlink:href="#g3450"
       transform="translate(271.8599,-62.857142)"
       id="use3489"
       width="1600"
       height="900" />
    <path
       style="fill:none;stroke:#000000;stroke-width:8;stroke-linecap:butt;stroke-linejoin:miter;stroke-miterlimit:4;stroke-opacity:1;stroke-dasharray:none"
       d="m 160.13917,483.96002 c -7.61905,0 -15.2381,0 -22.85714,0 -8.01797,0 -12.89182,-1.20468 -19.99999,2.85714 -33.678714,19.24498 -0.11033,0.11033 -14.28572,14.28572 -1.50585,1.50585 -4.208442,1.35129 -5.714288,2.85714 -1.505847,1.50585 -1.904762,3.80953 -2.857143,5.71429 -0.952381,1.90476 -2.340642,3.64828 -2.857143,5.71428 -0.461973,1.84789 0,3.80953 0,5.71429 0,2.85714 0,5.71428 0,8.57143 0,5.71428 0,11.42857 0,17.14285 0,3.80953 -0.626282,7.67088 0,11.42858 0.350102,2.10061 1.904762,3.80952 2.857143,5.71428 0.952381,1.90476 1.351296,4.20844 2.857143,5.71429 4.424138,4.42414 14.526728,2.85714 20.000008,2.85714 13.33332,0 26.66665,0 39.99999,0 8.57142,0 17.14285,0 25.71428,0 1.49406,0 10.67731,0.37563 11.42857,0 1.20468,-0.60234 1.90476,-1.90476 2.85715,-2.85714 0.95238,-0.95238 2.2548,-1.65247 2.85714,-2.85715 0.42592,-0.85183 0,-1.90476 0,-2.85714 0,-0.95238 0,-1.90476 0,-2.85714 0,-4.76191 0,-9.52381 0,-14.28572 0,-14.28571 0,-28.57142 0,-42.85714 0,-3.80952 0,-7.61905 0,-11.42857 0,-0.95238 0.67343,-2.18371 0,-2.85714 -0.67344,-0.67344 -1.90476,0 -2.85714,0 -6.66667,0 -13.33334,0 -20,0 -0.95239,0 -1.95364,0.30117 -2.85715,0 -4.86554,-1.62185 -9.48353,-7.51511 -14.28571,-5.71429 -5.19971,1.94989 -5.49102,9.6651 -8.57143,14.28572 -0.74711,1.12066 -2.2548,1.65246 -2.85714,2.85714 -0.42592,0.85183 0.67343,2.18371 0,2.85714 -0.67344,0.67344 -1.90476,0 -2.85715,0"
       id="path3541"
       inkscape:connector-curvature="0" />
    <path
       style="fill:none;stroke:#000000;stroke-width:8;stroke-linecap:butt;stroke-linejoin:miter;stroke-miterlimit:4;stroke-opacity:1;stroke-dasharray:none"
       d="m 148.7106,566.81716 c 0,47.61905 0,95.2381 0,142.85715 0,29.52381 0,59.04758 0,88.57138 0,13.3334 0,26.6667 0,40 0,0.693 0.0919,8.4796 0,8.5715 -0.67344,0.6734 -3.80953,0 -2.85715,0 4.76191,0 9.52381,0 14.28572,0 7.61905,0 15.26938,0.6898 22.85714,0 13.41339,-1.2194 26.58194,-4.5475 40,-5.7143 8.53921,-0.7426 17.14286,0 25.71429,0 5.71428,0 11.42857,0 17.14285,0 3.80953,0 7.61905,0 11.42858,0 0.95238,0 1.90476,0 2.85714,0 0.95238,0 2.85714,-0.9524 2.85714,0 0,0.9524 -2.85714,-0.9524 -2.85714,0 0,2.1296 2.50704,3.6137 2.85714,5.7143 0.86017,5.161 0,14.1176 0,20 0,13.3333 0,26.6666 0,40"
       id="path3549"
       inkscape:connector-curvature="0" />
    <path
       style="fill:none;stroke:#000000;stroke-width:8;stroke-linecap:butt;stroke-linejoin:miter;stroke-miterlimit:4;stroke-opacity:1;stroke-dasharray:none"
       d="m 160.13917,718.24574 c 24.7619,0 49.52381,0 74.28571,0 6.66667,0 13.33334,0 20,0 2.85715,0 5.71429,0 8.57143,0 1.90476,0 3.8664,-0.46198 5.71429,0 2.066,0.5165 3.69398,2.1837 5.71428,2.85714 2.29972,0.76657 9.6028,-0.91289 11.42857,0 1.20468,0.60234 1.65247,2.2548 2.85715,2.85714 0.85183,0.42592 2.0053,-0.42592 2.85714,0 1.20468,0.60234 1.65247,2.25481 2.85714,2.85714 0.85184,0.42592 1.90476,0 2.85715,0 0.95238,0 1.90476,0 2.85714,0"
       id="path3551"
       inkscape:connector-curvature="0" />
    <path
       style="fill:none;stroke:#000000;stroke-width:8;stroke-linecap:butt;stroke-linejoin:miter;stroke-miterlimit:4;stroke-opacity:1;stroke-dasharray:none"
       d="m 271.56774,755.38859 c 3.80952,0 11.42857,-3.8095 11.42857,0 0,3.8095 -15.23809,0 -11.42857,0 19.04762,0 38.09524,0 57.14286,0 0.69293,0 8.47954,0.092 8.57143,0 0.67343,-0.6734 -0.42592,-2.0053 0,-2.8571 1.98291,-3.9659 5.08377,-2.8572 8.57142,-2.8572"
       id="path3553"
       inkscape:connector-curvature="0" />
    <path
       style="fill:none;stroke:#000000;stroke-width:8;stroke-linecap:butt;stroke-linejoin:miter;stroke-miterlimit:4;stroke-opacity:1;stroke-dasharray:none"
       d="m 280.13917,781.10289 c 15.23809,0 30.47619,0 45.71428,0 14.28572,0 28.57143,0 42.85715,0 8.57143,0 17.14285,0 25.71428,0 30.47619,0 60.95238,0 91.42857,0 3.80953,0 7.61905,0 11.42858,0 0.95238,0 1.90476,0 2.85714,0 0.95238,0 2.18371,-0.6735 2.85714,0 0.67344,0.6734 -0.67343,2.1837 0,2.8571 0.11498,0.115 10.37933,0 11.42857,0"
       id="path3555"
       inkscape:connector-curvature="0" />
    <path
       style="fill:none;stroke:#000000;stroke-width:8;stroke-linecap:butt;stroke-linejoin:miter;stroke-miterlimit:4;stroke-opacity:1;stroke-dasharray:none"
       d="m 354.42488,661.10288 c 0,-13.45748 -1.21218,-32.14987 2.85715,-45.71429 0.98671,-3.28904 4.43898,-5.38317 5.71428,-8.57143 0,-13.00652 -1.34687,-0.1634 2.85714,-8.57142 0.85184,-1.70368 -1.34687,-4.36742 0,-5.71429 0.67344,-0.67344 2.18371,0.67344 2.85715,0 0.003,-0.003 -0.004,-8.55848 0,-8.57143 0.42591,-1.27775 1.90476,-1.90476 2.85714,-2.85714 0,-1.90476 -0.46197,-3.8664 0,-5.71429 3.44925,-13.79698 1.35777,0.14161 5.71429,-8.57143 0.85183,-1.70367 -1.34687,-4.36741 0,-5.71428 7.61904,0 -0.95239,0.95238 2.85714,-2.85714 0.67343,-0.67344 2.18371,0.67343 2.85714,0 1.34687,-1.34687 -1.34687,-4.36742 0,-5.71429 0.67344,-0.67344 2.43123,0.85184 2.85714,0 0.85184,-1.70367 -0.60233,-3.90727 0,-5.71429 0.42592,-1.27775 2.25481,-1.65246 2.85715,-2.85714 1.14285,-2.28571 -1.14286,-6.28571 0,-8.57143 0.60234,-1.20467 2.2548,-1.65246 2.85714,-2.85714 0.56642,-1.13283 -0.5841,-7.98732 0,-8.57143 0.67344,-0.67343 2.18371,0.67344 2.85714,0 0.67344,-0.67343 -0.67343,-2.18371 0,-2.85714 0.67344,-0.67344 1.90476,0 2.85715,0 4.7619,0 9.52381,0 14.28571,0 0.95238,0 1.90476,0 2.85714,0 0.95238,0 2.18371,-0.67344 2.85715,0 0.67343,0.67343 0.95238,2.85714 0,2.85714 -0.95239,0 0,-3.80952 0,-2.85714 0,9.52381 0,19.04762 0,28.57143 0,4.7619 1.15493,9.66599 0,14.28571 -1.03301,4.13201 -3.80953,7.61905 -5.71429,11.42857 -0.95238,1.90476 -1.57939,4.01062 -2.85714,5.71429 -1.61625,2.15499 -4.22007,3.47296 -5.71429,5.71428 -0.52828,0.79243 0.67344,2.18371 0,2.85715 -0.67343,0.67343 -2.18371,-0.67344 -2.85714,0 -1.34687,1.34687 1.34687,4.36741 0,5.71428 -0.67344,0.67344 -2.18371,-0.67343 -2.85714,0 -0.67344,0.67344 0.42591,2.00531 0,2.85715 -0.60234,1.20467 -2.43123,1.57939 -2.85715,2.85714 -0.60234,1.80701 0.46198,3.86639 0,5.71428 -0.5165,2.06601 -1.90476,3.80953 -2.85714,5.71429 -1.90476,3.80952 -4.36742,7.38796 -5.71429,11.42857 -0.60233,1.80702 1.34687,4.36742 0,5.71429 -0.67343,0.67343 -2.1837,-0.67344 -2.85714,0 -0.67343,0.67343 0,1.90476 0,2.85714 0,5.71429 0,11.42857 0,17.14286 0,0.95238 0,1.90476 0,2.85714 0,0.95238 0.67344,2.18371 0,2.85714 -1.88235,1.88236 -3.83193,-1.88235 -5.71428,0 -1.42858,1.42857 1.42857,7.14286 0,8.57143 -5.91153,5.91153 0.23108,-9.0336 -5.71429,2.85714 -0.42592,0.85184 0.67344,2.18371 0,2.85715 -0.67344,0.67343 -1.90476,0 -2.85714,0 -7.61905,0 -2.09524,0.57143 -14.28572,-8.57143 z"
       id="path3559"
       inkscape:connector-curvature="0" />
    <path
       style="fill:none;stroke:#000000;stroke-width:8;stroke-linecap:butt;stroke-linejoin:miter;stroke-miterlimit:4;stroke-opacity:1;stroke-dasharray:none"
       d="m 388.7106,612.53145 c 0,7.61905 0,15.2381 0,22.85714 0,2.85715 -0.56033,5.76977 0,8.57143 0.41764,2.08823 1.90476,3.80953 2.85714,5.71429 0.95238,1.90476 1.3513,4.20844 2.85714,5.71428 0.67344,0.67344 2.18371,-0.67343 2.85715,0 1.34687,1.34687 -0.85184,4.01062 0,5.71429 5.13224,10.26448 2.10585,-10.22203 5.71428,11.42857 0.46971,2.81827 0,5.71429 0,8.57143 0,2.85714 0,5.71428 0,8.57143 0,1.90476 -0.46197,3.86639 0,5.71428 0.5165,2.06601 2.34064,3.64828 2.85714,5.71429 0.47391,1.89561 0,14.71888 0,17.14286 0,5.71428 0,11.42857 0,17.14285 0,0.95238 0.67344,2.18371 0,2.85715 -0.67343,0.67343 -1.90476,0 -2.85714,0 -1.90476,0 -3.80952,0 -5.71428,0 -6.66667,0 -13.33334,0 -20,0 -3.80953,0 -7.61905,0 -11.42858,0 -0.95238,0 -2.85714,0.95238 -2.85714,0 0,-0.95239 1.90476,0 2.85714,0 1.90477,0 3.80953,0 5.71429,0 7.61905,0 15.2381,0 22.85714,0 1.90476,0 3.8664,0.46197 5.71429,0 2.92177,-0.73045 5.61822,-2.26651 8.57143,-2.85715 3.21813,-0.64362 7.99019,0 11.42857,0 8.57143,0 17.14286,0 25.71428,0"
       id="path3561"
       inkscape:connector-curvature="0" />
  </g>
</svg>
