<?xml version="1.0" encoding="UTF-8" standalone="no"?>
<!-- Created with Inkscape (http://www.inkscape.org/) -->

<svg
   xmlns:dc="http://purl.org/dc/elements/1.1/"
   xmlns:cc="http://creativecommons.org/ns#"
   xmlns:rdf="http://www.w3.org/1999/02/22-rdf-syntax-ns#"
   xmlns:svg="http://www.w3.org/2000/svg"
   xmlns="http://www.w3.org/2000/svg"
   xmlns:xlink="http://www.w3.org/1999/xlink"
   xmlns:sodipodi="http://sodipodi.sourceforge.net/DTD/sodipodi-0.dtd"
   xmlns:inkscape="http://www.inkscape.org/namespaces/inkscape"
   width="1600"
   height="900"
   id="svg2"
   version="1.1"
   inkscape:version="0.48.5 r10040"
   sodipodi:docname="023.svg">
  <defs
     id="defs4" />
  <sodipodi:namedview
     id="base"
     pagecolor="#ffffff"
     bordercolor="#666666"
     borderopacity="1.0"
     inkscape:pageopacity="0.0"
     inkscape:pageshadow="2"
     inkscape:zoom="0.35"
     inkscape:cx="481.47341"
     inkscape:cy="520"
     inkscape:document-units="px"
     inkscape:current-layer="layer1"
     showgrid="false"
     width="1600px"
     inkscape:window-width="1366"
     inkscape:window-height="721"
     inkscape:window-x="0"
     inkscape:window-y="1"
     inkscape:window-maximized="1" />
  <metadata
     id="metadata7">
    <rdf:RDF>
      <cc:Work
         rdf:about="">
        <dc:format>image/svg+xml</dc:format>
        <dc:type
           rdf:resource="http://purl.org/dc/dcmitype/StillImage" />
        <dc:title></dc:title>
      </cc:Work>
    </rdf:RDF>
  </metadata>
  <g
     inkscape:label="Layer 1"
     inkscape:groupmode="layer"
     id="layer1"
     transform="translate(0,-152.36218)">
    <g
       id="g3450"
       transform="matrix(0.32878736,0,0,0.32878736,271.62339,263.94477)"
       inkscape:tile-cx="345.71428"
       inkscape:tile-cy="251.85902"
       inkscape:tile-w="126.14562"
       inkscape:tile-h="134.12118"
       inkscape:tile-x0="283.94774"
       inkscape:tile-y0="186.10471">
      <path
         d="m -80.328509,634.5833 -19.5,-380.31 326.879999,1.021 c -0.02,20.061 5.69,359.95 5.89,376.59 -103.06,-20.5 -303.919999,2.56 -313.269999,2.7 z"
         id="path623"
         inkscape:connector-curvature="0"
         style="fill:#040565;fill-opacity:0.39770005;fill-rule:evenodd" />
      <path
         d="m -127.46651,609.0433 c -5.846,-126.11 -7.764,-324.9 -17.538,-378.34 106.340001,15.401 257.76,-13.086 324.92,-0.943 -20.03,58.673 3.73,359.95 3.93,376.58 -103.069999,-20.49 -310.88,12.04 -311.31,2.7 z"
         id="path583"
         inkscape:connector-curvature="0"
         style="fill:#ffffeb;fill-rule:evenodd;stroke:#99bf99;stroke-width:15.8920002" />
      <path
         d="m -105.86051,581.5533 c -15.266,-68.12 -14.048,-323.15 -13.579,-332.15 100.660001,18.276 242.64,-3.342 260.57,-2.983 l -0.51,24.588 c -0.01,20.06 -73.649999,143.7 -73.449999,160.34 -103.07,-20.5 -163.69,150.06 -173.030001,150.2 z"
         id="path622"
         inkscape:connector-curvature="0"
         style="fill:#b2d385;fill-opacity:0.4327;fill-rule:evenodd" />
      <path
         d="m -102.77451,342.6433 v 36.57 H 9.7654911 v -36.57 H -102.77451 z"
         id="path627"
         inkscape:connector-curvature="0"
         style="fill:#3a8b39;fill-rule:evenodd" />
      <path
         d="m -101.36751,398.9133 v 30.95 H 9.7624911 v -30.95 H -101.36751 z"
         id="path633"
         inkscape:connector-curvature="0"
         style="fill:#ffff00;fill-rule:evenodd" />
      <path
         d="m -101.36751,438.3033 v 36.57 h 91.4390011 v -36.57 H -101.36751 z"
         id="path626"
         inkscape:connector-curvature="0"
         style="fill:#e1cf80;fill-rule:evenodd" />
      <path
         d="m 33.681491,342.6433 v 35.17 H 140.59149 v -35.17 H 33.681491 z"
         id="path628"
         inkscape:connector-curvature="0"
         style="fill:#cbcbe5;fill-rule:evenodd" />
      <path
         d="m 33.681491,397.5033 v 66.12 H 136.37149 v -66.12 H 33.681491 z"
         id="path625"
         inkscape:connector-curvature="0"
         style="fill:#d8d2e1;fill-rule:evenodd" />
      <path
         d="m -102.77451,290.5903 v 32.353 h 241.97 v -32.353 h -241.97 z"
         id="path632"
         inkscape:connector-curvature="0"
         style="fill:#eb7e58;fill-rule:evenodd" />
      <path
         d="m 134.84149,543.2833 v -47.31 h -239.53 l -0.004,47.31 h 239.53 z"
         id="path636"
         inkscape:connector-curvature="0"
         style="fill:#80b26b;fill-rule:evenodd" />
      <path
         d="m 237.37149,537.2433 c 0,30.69 -56.05,55.57 -125.2,55.57 -69.149999,0 -125.199999,-24.88 -125.199999,-55.57 -4.22,-84.15 -0.22,-64.01 125.199999,-55.57 131.04,-16.88 129.42,-18.73 125.2,55.57 z"
         id="path630"
         inkscape:connector-curvature="0"
         style="fill:#f14300;fill-rule:evenodd" />
      <path
         d="m 237.37149,483.7833 c 0,30.69 -56.05,55.57 -125.2,55.57 -69.149999,0 -125.199999,-24.88 -125.199999,-55.57 0,-30.69 56.05,-55.56 125.199999,-55.56 69.15,0 125.2,24.87 125.2,55.56 z"
         id="path631"
         inkscape:connector-curvature="0"
         style="fill:#ffbd4d;fill-rule:evenodd" />
      <path
         d="m 110.76149,476.0533 75.97,53.45 v 53.46 c -12.66,1.41 -19.71,9.8 -73.15,9.85 -43.689999,0.03 -56.269999,-5.63 -64.709999,-9.85 v -52.05 l 61.889999,-54.86 z"
         id="path635"
         inkscape:connector-curvature="0"
         style="fill:#ffff56;fill-rule:evenodd;stroke:#000000" />
      <path
         d="m 47.471491,530.2433 c 34.63,13.28 78.569999,14.82 138.959999,-0.36 -0.34,12.72 0.94,35.49 0.9,51.55 -16,7.25 -42.06,11.35 -68.78,11.38 -43.679999,0.03 -61.239999,-5.63 -69.679999,-9.85 l -1.4,-52.72 z"
         id="path637"
         inkscape:connector-curvature="0"
         style="fill:#b2ff56;fill-rule:evenodd;stroke:#000000" />
    </g>
    <use
       x="0"
       y="0"
       inkscape:tiled-clone-of="#g3450"
       xlink:href="#g3450"
       id="use3485"
       transform="translate(-197.14286,-34.285717)"
       width="1600"
       height="900" />
    <use
       x="0"
       y="0"
       inkscape:tiled-clone-of="#g3450"
       xlink:href="#g3450"
       transform="translate(165.71428,-11.593101)"
       id="use3487"
       width="1600"
       height="900" />
    <use
       x="0"
       y="0"
       inkscape:tiled-clone-of="#g3450"
       xlink:href="#g3450"
       transform="translate(291.8599,-134.28571)"
       id="use3489"
       width="1600"
       height="900" />
    <use
       x="0"
       y="0"
       xlink:href="#g3450"
       id="use4460"
       transform="translate(525.71427,502.85714)"
       width="1600"
       height="900" />
    <use
       x="0"
       y="0"
       xlink:href="#g3450"
       id="use4462"
       transform="translate(762.8571,-102.85714)"
       width="1600"
       height="900" />
  </g>
</svg>
