<?xml version="1.0" encoding="UTF-8" standalone="no"?>
<!-- Created with Inkscape (http://www.inkscape.org/) -->

<svg
   xmlns:dc="http://purl.org/dc/elements/1.1/"
   xmlns:cc="http://creativecommons.org/ns#"
   xmlns:rdf="http://www.w3.org/1999/02/22-rdf-syntax-ns#"
   xmlns:svg="http://www.w3.org/2000/svg"
   xmlns="http://www.w3.org/2000/svg"
   xmlns:xlink="http://www.w3.org/1999/xlink"
   xmlns:sodipodi="http://sodipodi.sourceforge.net/DTD/sodipodi-0.dtd"
   xmlns:inkscape="http://www.inkscape.org/namespaces/inkscape"
   width="1600"
   height="900"
   id="svg2"
   version="1.1"
   inkscape:version="0.48.5 r10040"
   sodipodi:docname="048.svg">
  <defs
     id="defs4" />
  <sodipodi:namedview
     id="base"
     pagecolor="#ffffff"
     bordercolor="#666666"
     borderopacity="1.0"
     inkscape:pageopacity="0.0"
     inkscape:pageshadow="2"
     inkscape:zoom="0.35"
     inkscape:cx="799.42227"
     inkscape:cy="248.57245"
     inkscape:document-units="px"
     inkscape:current-layer="layer1"
     showgrid="false"
     width="1600px"
     inkscape:window-width="1366"
     inkscape:window-height="721"
     inkscape:window-x="0"
     inkscape:window-y="1"
     inkscape:window-maximized="1" />
  <metadata
     id="metadata7">
    <rdf:RDF>
      <cc:Work
         rdf:about="">
        <dc:format>image/svg+xml</dc:format>
        <dc:type
           rdf:resource="http://purl.org/dc/dcmitype/StillImage" />
        <dc:title></dc:title>
      </cc:Work>
    </rdf:RDF>
  </metadata>
  <g
     inkscape:label="Layer 1"
     inkscape:groupmode="layer"
     id="layer1"
     transform="translate(0,-152.36218)">
    <g
       id="g3450"
       transform="matrix(0.32878736,0,0,0.32878736,231.62359,630.65718)"
       inkscape:tile-cx="788.57143"
       inkscape:tile-cy="457.14285"
       inkscape:tile-w="126.14562"
       inkscape:tile-h="134.12118"
       inkscape:tile-x0="726.80489"
       inkscape:tile-y0="391.38854">
      <path
         d="m -80.328509,634.5833 -19.5,-380.31 326.879999,1.021 c -0.02,20.061 5.69,359.95 5.89,376.59 -103.06,-20.5 -303.919999,2.56 -313.269999,2.7 z"
         id="path623"
         inkscape:connector-curvature="0"
         style="fill:#040565;fill-opacity:0.39770005;fill-rule:evenodd" />
      <path
         d="m -127.46651,609.0433 c -5.846,-126.11 -7.764,-324.9 -17.538,-378.34 106.340001,15.401 257.76,-13.086 324.92,-0.943 -20.03,58.673 3.73,359.95 3.93,376.58 -103.069999,-20.49 -310.88,12.04 -311.31,2.7 z"
         id="path583"
         inkscape:connector-curvature="0"
         style="fill:#ffffeb;fill-rule:evenodd;stroke:#99bf99;stroke-width:15.8920002" />
      <path
         d="m -105.86051,581.5533 c -15.266,-68.12 -14.048,-323.15 -13.579,-332.15 100.660001,18.276 242.64,-3.342 260.57,-2.983 l -0.51,24.588 c -0.01,20.06 -73.649999,143.7 -73.449999,160.34 -103.07,-20.5 -163.69,150.06 -173.030001,150.2 z"
         id="path622"
         inkscape:connector-curvature="0"
         style="fill:#b2d385;fill-opacity:0.4327;fill-rule:evenodd" />
      <path
         d="m -102.77451,342.6433 v 36.57 H 9.7654911 v -36.57 H -102.77451 z"
         id="path627"
         inkscape:connector-curvature="0"
         style="fill:#3a8b39;fill-rule:evenodd" />
      <path
         d="m -101.36751,398.9133 v 30.95 H 9.7624911 v -30.95 H -101.36751 z"
         id="path633"
         inkscape:connector-curvature="0"
         style="fill:#ffff00;fill-rule:evenodd" />
      <path
         d="m -101.36751,438.3033 v 36.57 h 91.4390011 v -36.57 H -101.36751 z"
         id="path626"
         inkscape:connector-curvature="0"
         style="fill:#e1cf80;fill-rule:evenodd" />
      <path
         d="m 33.681491,342.6433 v 35.17 H 140.59149 v -35.17 H 33.681491 z"
         id="path628"
         inkscape:connector-curvature="0"
         style="fill:#cbcbe5;fill-rule:evenodd" />
      <path
         d="m 33.681491,397.5033 v 66.12 H 136.37149 v -66.12 H 33.681491 z"
         id="path625"
         inkscape:connector-curvature="0"
         style="fill:#d8d2e1;fill-rule:evenodd" />
      <path
         d="m -102.77451,290.5903 v 32.353 h 241.97 v -32.353 h -241.97 z"
         id="path632"
         inkscape:connector-curvature="0"
         style="fill:#eb7e58;fill-rule:evenodd" />
      <path
         d="m 134.84149,543.2833 v -47.31 h -239.53 l -0.004,47.31 h 239.53 z"
         id="path636"
         inkscape:connector-curvature="0"
         style="fill:#80b26b;fill-rule:evenodd" />
      <path
         d="m 237.37149,537.2433 c 0,30.69 -56.05,55.57 -125.2,55.57 -69.149999,0 -125.199999,-24.88 -125.199999,-55.57 -4.22,-84.15 -0.22,-64.01 125.199999,-55.57 131.04,-16.88 129.42,-18.73 125.2,55.57 z"
         id="path630"
         inkscape:connector-curvature="0"
         style="fill:#f14300;fill-rule:evenodd" />
      <path
         d="m 237.37149,483.7833 c 0,30.69 -56.05,55.57 -125.2,55.57 -69.149999,0 -125.199999,-24.88 -125.199999,-55.57 0,-30.69 56.05,-55.56 125.199999,-55.56 69.15,0 125.2,24.87 125.2,55.56 z"
         id="path631"
         inkscape:connector-curvature="0"
         style="fill:#ffbd4d;fill-rule:evenodd" />
      <path
         d="m 110.76149,476.0533 75.97,53.45 v 53.46 c -12.66,1.41 -19.71,9.8 -73.15,9.85 -43.689999,0.03 -56.269999,-5.63 -64.709999,-9.85 v -52.05 l 61.889999,-54.86 z"
         id="path635"
         inkscape:connector-curvature="0"
         style="fill:#ffff56;fill-rule:evenodd;stroke:#000000" />
      <path
         d="m 47.471491,530.2433 c 34.63,13.28 78.569999,14.82 138.959999,-0.36 -0.34,12.72 0.94,35.49 0.9,51.55 -16,7.25 -42.06,11.35 -68.78,11.38 -43.679999,0.03 -61.239999,-5.63 -69.679999,-9.85 l -1.4,-52.72 z"
         id="path637"
         inkscape:connector-curvature="0"
         style="fill:#b2ff56;fill-rule:evenodd;stroke:#000000" />
    </g>
    <use
       x="0"
       y="0"
       inkscape:tiled-clone-of="#g3450"
       xlink:href="#g3450"
       id="use4425"
       transform="translate(345.41791,-440)"
       width="1600"
       height="900" />
    <use
       x="0"
       y="0"
       inkscape:tiled-clone-of="#g3450"
       xlink:href="#g3450"
       transform="translate(83.234566,-168.57142)"
       id="use4427"
       width="1600"
       height="900" />
    <use
       x="0"
       y="0"
       inkscape:tiled-clone-of="#g3450"
       xlink:href="#g3450"
       transform="translate(195.04053,-322.85714)"
       id="use4429"
       width="1600"
       height="900" />
    <use
       x="0"
       y="0"
       inkscape:tiled-clone-of="#g3450"
       xlink:href="#g3450"
       transform="translate(505.79529,-498.28571)"
       id="use4431"
       width="1600"
       height="900" />
    <use
       x="0"
       y="0"
       inkscape:tiled-clone-of="#g3450"
       xlink:href="#g3450"
       transform="translate(666.17271,-440)"
       id="use4433"
       width="1600"
       height="900" />
    <use
       x="0"
       y="0"
       inkscape:tiled-clone-of="#g3450"
       xlink:href="#g3450"
       transform="translate(826.55012,-322.85714)"
       id="use4435"
       width="1600"
       height="900" />
    <use
       x="0"
       y="0"
       inkscape:tiled-clone-of="#g3450"
       xlink:href="#g3450"
       transform="translate(911.2133,-168.57142)"
       id="use4437"
       width="1600"
       height="900" />
    <use
       x="0"
       y="0"
       inkscape:tiled-clone-of="#g3450"
       xlink:href="#g3450"
       transform="translate(994.44776,8.5714287e-6)"
       id="use4439"
       width="1600"
       height="900" />
    <path
       style="fill:none;stroke:#000000;stroke-width:1px;stroke-linecap:butt;stroke-linejoin:miter;stroke-opacity:1"
       d="M 231.42857,594.28571 308.57143,445.71429"
       id="path4441"
       inkscape:connector-curvature="0"
       transform="translate(0,152.36218)" />
    <path
       style="fill:none;stroke:#000000;stroke-width:1px;stroke-linecap:butt;stroke-linejoin:miter;stroke-opacity:1"
       d="m 182.85714,580 100,-148.57143"
       id="path4443"
       inkscape:connector-curvature="0"
       transform="translate(0,152.36218)" />
    <path
       style="fill:none;stroke:#000000;stroke-width:1px;stroke-linecap:butt;stroke-linejoin:miter;stroke-opacity:1"
       d="M 277.14286,631.42857 362.85714,437.14286"
       id="path4445"
       inkscape:connector-curvature="0"
       transform="translate(0,152.36218)" />
    <path
       style="fill:none;stroke:#000000;stroke-width:10;stroke-linecap:butt;stroke-linejoin:miter;stroke-opacity:1;stroke-miterlimit:4;stroke-dasharray:none"
       d="M 245.71429,608.57143 454.28571,260"
       id="path4447"
       inkscape:connector-curvature="0"
       transform="translate(0,152.36218)" />
    <path
       style="fill:none;stroke:#000000;stroke-width:1px;stroke-linecap:butt;stroke-linejoin:miter;stroke-opacity:1"
       d="M 237.14286,622.85714 440,317.14286"
       id="path4449"
       inkscape:connector-curvature="0"
       transform="translate(0,152.36218)" />
    <path
       style="fill:none;stroke:#000000;stroke-width:1px;stroke-linecap:butt;stroke-linejoin:miter;stroke-opacity:1"
       d="m 251.42857,640 c 0,0 205.71429,-291.42857 214.28572,-311.42857"
       id="path4451"
       inkscape:connector-curvature="0"
       transform="translate(0,152.36218)" />
    <path
       style="fill:none;stroke:#000000;stroke-width:1px;stroke-linecap:butt;stroke-linejoin:miter;stroke-opacity:1"
       d="M 220,622.85714 605.71429,180 197.14286,600 580,151.42857"
       id="path4453"
       inkscape:connector-curvature="0"
       transform="translate(0,152.36218)" />
    <path
       style="fill:none;stroke:#000000;stroke-width:1px;stroke-linecap:butt;stroke-linejoin:miter;stroke-opacity:1"
       d="M 197.14286,640 740,120"
       id="path4455"
       inkscape:connector-curvature="0"
       transform="translate(0,152.36218)" />
    <path
       style="fill:none;stroke:#000000;stroke-width:1px;stroke-linecap:butt;stroke-linejoin:miter;stroke-opacity:1"
       d="m 782.85714,131.42857 c 0,0 -482.85714,508.57143 -477.14285,497.14286"
       id="path4457"
       inkscape:connector-curvature="0"
       transform="translate(0,152.36218)" />
    <path
       style="fill:none;stroke:#000000;stroke-width:1px;stroke-linecap:butt;stroke-linejoin:miter;stroke-opacity:1"
       d="M 214.28571,602.85714 705.71429,94.285714"
       id="path4459"
       inkscape:connector-curvature="0"
       transform="translate(0,152.36218)" />
    <path
       style="fill:none;stroke:#000000;stroke-width:1px;stroke-linecap:butt;stroke-linejoin:miter;stroke-opacity:1"
       d="M 905.71429,165.71429 234.28571,611.42857"
       id="path4461"
       inkscape:connector-curvature="0"
       transform="translate(0,152.36218)" />
    <path
       style="fill:none;stroke:#000000;stroke-width:1px;stroke-linecap:butt;stroke-linejoin:miter;stroke-opacity:1"
       d="m 905.71429,140 -680,494.28571"
       id="path4465"
       inkscape:connector-curvature="0"
       transform="translate(0,152.36218)" />
    <path
       style="fill:none;stroke:#000000;stroke-width:1px;stroke-linecap:butt;stroke-linejoin:miter;stroke-opacity:1"
       d="m 200,645.71429 c 0,0 882.8571,-357.14286 880,-371.42858"
       id="path4467"
       inkscape:connector-curvature="0"
       transform="translate(0,152.36218)" />
    <path
       style="fill:none;stroke:#000000;stroke-width:1px;stroke-linecap:butt;stroke-linejoin:miter;stroke-opacity:1"
       d="M 1097.1429,320 220,637.14286 1042.8571,271.42857"
       id="path4469"
       inkscape:connector-curvature="0"
       transform="translate(0,152.36218)" />
    <path
       style="fill:none;stroke:#000000;stroke-width:1px;stroke-linecap:butt;stroke-linejoin:miter;stroke-opacity:1"
       d="M 1140,428.57143 254.28571,557.14286"
       id="path4471"
       inkscape:connector-curvature="0"
       transform="translate(0,152.36218)" />
    <path
       style="fill:none;stroke:#000000;stroke-width:1px;stroke-linecap:butt;stroke-linejoin:miter;stroke-opacity:1"
       d="M 1188.5714,465.71429 197.14286,648.57143"
       id="path4473"
       inkscape:connector-curvature="0"
       transform="translate(0,152.36218)" />
    <path
       style="fill:none;stroke:#000000;stroke-width:1px;stroke-linecap:butt;stroke-linejoin:miter;stroke-opacity:1"
       d="M 234.28571,682.85714 1160,442.85714"
       id="path4475"
       inkscape:connector-curvature="0"
       transform="translate(0,152.36218)" />
    <path
       style="fill:none;stroke:#000000;stroke-width:1px;stroke-linecap:butt;stroke-linejoin:miter;stroke-opacity:1"
       d="M 1082.8571,308.57143 245.71429,671.42857 c 0,0 -2.85715,-14.28571 -2.85715,-25.71428 0,-11.42858 662.85715,-500 662.85715,-500 l -637.14286,508.57142 -77.14286,0 860.00003,-405.71428 -797.14289,405.71428"
       id="path4477"
       inkscape:connector-curvature="0"
       transform="translate(0,152.36218)" />
    <path
       style="fill:none;stroke:#000000;stroke-width:1px;stroke-linecap:butt;stroke-linejoin:miter;stroke-opacity:1"
       d="M 1234.2857,625.71429 265.71429,600 1211.4286,660"
       id="path4479"
       inkscape:connector-curvature="0"
       transform="translate(0,152.36218)" />
    <text
       xml:space="preserve"
       style="font-size:72px;font-style:normal;font-variant:normal;font-weight:500;font-stretch:normal;text-align:center;line-height:125%;letter-spacing:0px;word-spacing:0px;writing-mode:lr-tb;text-anchor:middle;fill:#000000;fill-opacity:1;stroke:none;font-family:Century Schoolbook L;-inkscape-font-specification:Century Schoolbook L Medium"
       x="801.4715"
       y="955.50507"
       id="text4481"
       sodipodi:linespacing="125%"><tspan
         sodipodi:role="line"
         id="tspan4483"
         x="801.4715"
         y="955.50507">choose the best joins</tspan></text>
    <path
       style="fill:none;stroke:#000000;stroke-width:10;stroke-linecap:butt;stroke-linejoin:miter;stroke-opacity:1;stroke-miterlimit:4;stroke-dasharray:none"
       d="M 202.85714,668.57143 937.14286,211.42857"
       id="path4463"
       inkscape:connector-curvature="0"
       transform="translate(0,152.36218)" />
  </g>
</svg>
